<svg width="103" height="35" viewBox="0 0 103 35" fill="none" xmlns="http://www.w3.org/2000/svg">
<g clip-path="url(#clip0_188_396)">
<path d="M89.0161 11.9877V17.6425C89.0161 20.792 91.5006 23.2972 94.6239 23.2972V28.952C88.4482 28.952 83.4082 23.8699 83.4082 17.6425V6.33301H94.6239V11.9877H89.0161Z" fill="white"/>
<path d="M47.3471 6.33301V17.5709C47.3471 23.7983 42.3781 28.8088 36.2023 28.8088C30.0266 28.8088 25.0576 23.7983 25.0576 17.5709V6.33301H30.5945V17.5709C30.5945 20.6488 33.079 23.1541 36.1314 23.1541C39.1837 23.1541 41.6682 20.6488 41.6682 17.5709V6.33301H47.3471Z" fill="white"/>
<path d="M70.8433 12.2736C69.8495 10.5557 68.5008 9.19569 66.7971 8.19359C63.3898 6.18938 59.1307 6.18938 55.7234 8.19359C54.0197 9.19569 52.671 10.6273 51.6772 12.2736C50.6834 13.9915 50.1865 15.9241 50.1865 17.8567V34.7494H55.7234V27.5915C59.1307 29.5957 63.3898 29.5957 66.7971 27.5915C68.5008 26.5894 69.8495 25.1578 70.8433 23.5115C72.8309 20.0041 72.8309 15.781 70.8433 12.2736ZM55.6524 17.8567C55.6524 14.7789 58.1369 12.2736 61.1893 12.2736C64.2417 12.2736 66.7262 14.7789 66.7262 17.8567C66.7262 20.9346 64.2417 23.4399 61.1893 23.4399C58.1369 23.4399 55.6524 20.9346 55.6524 17.8567Z" fill="white"/>
<path d="M80.6394 21.5077V28.952H75.1025V6.33301H80.6394V21.5077Z" fill="white"/>
<path d="M100.231 28.8087C101.76 28.8087 103 27.5589 103 26.0172C103 24.4754 101.76 23.2256 100.231 23.2256C98.7024 23.2256 97.4629 24.4754 97.4629 26.0172C97.4629 27.5589 98.7024 28.8087 100.231 28.8087Z" fill="white"/>
<path d="M22.431 7.83613V2.10982C22.431 1.46561 21.9341 1.03613 21.3662 1.03613H0.354492V6.76245H15.9003C16.3262 6.76245 16.6812 7.12034 16.6812 7.54982V7.6214C16.6812 16.7119 9.36965 24.0846 0.354492 24.0846V29.8109H2.48406C7.45304 29.3814 11.9251 27.3056 15.4034 24.0846C15.8293 23.6551 16.2552 23.2256 16.6812 22.7961C20.2304 18.7877 22.431 13.5624 22.431 7.83613ZM10.2925 2.10982H20.0885H20.1595H20.4434C20.8693 2.10982 21.2242 2.46771 21.2242 2.89719V12.7751H20.0885V4.04245C20.0885 3.61297 19.7335 3.25508 19.3076 3.25508H10.2925V2.10982ZM10.2925 5.54561V4.40034H17.8169H18.1719C18.5978 4.40034 18.9527 4.75824 18.9527 5.18771V12.8467H17.8169V6.33298C17.8169 5.9035 17.462 5.54561 17.0361 5.54561H10.2925Z" fill="white"/>
</g>
<defs>
<clipPath id="clip0_188_396">
<rect width="103" height="34" fill="white" transform="translate(0 0.75)"/>
</clipPath>
</defs>
</svg>
